<svg xmlns="http://www.w3.org/2000/svg" viewBox="0 0 162.01 156.15"><defs><style>.cls-1,.cls-2{fill:#e56031;}.cls-2,.cls-4,.cls-5,.cls-6,.cls-8,.cls-9{stroke:#e56031;}.cls-2,.cls-3,.cls-5,.cls-6,.cls-9{stroke-miterlimit:10;}.cls-3,.cls-6,.cls-7{fill:#043730;}.cls-3{stroke:#fff;}.cls-4,.cls-5{fill:#fff;}.cls-4,.cls-8,.cls-9{stroke-linecap:round;}.cls-4,.cls-8{stroke-linejoin:round;}.cls-8,.cls-9{fill:none;}</style></defs><g id="Layer_2" data-name="Layer 2"><g id="OBJECTS"><path class="cls-1" d="M46.23,47.64c5.32-5.32,16.85-17.07,32.37-11.31,11.84,4.4,36.8,14.86,53.2,19.73l3.85-.72a69.25,69.25,0,1,0-6,53.49c-22.06-.35-27.44-17.2-32.61-14C95.21,96,91.25,98.5,86.56,101l5.32,6.35C102.39,120.44,89.43,129,89.43,129l-3.29-3.7a19.5,19.5,0,0,1-6.64,8.33l-5.24-5.9a19.6,19.6,0,0,1-2.53,2.13l-16-17.95,4-15.52,1.21.47C64.55,86.22,83.25,70.74,88.8,66.32L87,65.37H65.52S64.41,69.59,55.1,75.79C66.18,106.16,42.69,111,42.69,111s-7.5-26.78-11.53-36.8C27.23,64.47,40.91,53,46.23,47.64Z"/><path class="cls-2" d="M80.34,103.88l-1.34.54.84,1Z"/><path class="cls-3" d="M46.34,87.43C57.65,105.38,68,95.08,68,95.08L80.59,58.83,60,56.84,45,81.11Z"/><path class="cls-4" d="M142.67,54,131.8,56.06c-16.4-4.87-41.36-15.33-53.2-19.73-15.52-5.76-27,6-32.37,11.31s-19,16.83-15.07,26.6c4,10,11.53,36.8,11.53,36.8s23.49-4.88,12.41-35.25c9.31-6.2,10.42-10.42,10.42-10.42H87l58.5,31.06"/><path class="cls-5" d="M76.83,114.83,89.43,129s13-8.58,2.45-21.72L82.74,96.39Z"/><path class="cls-1" d="M73.5,121.09,78.4,127a5.81,5.81,0,1,0,9-7.41l-4.9-5.93Z"/><path class="cls-5" d="M64.85,117.17,79.5,133.65s15.06-10,2.85-25.23L71.73,95.75Z"/><path class="cls-1" d="M64,122.8l4.9,5.93a5.81,5.81,0,1,0,9-7.41L73,115.39Z"/><path class="cls-5" d="M55.77,111.93l16,17.95s16.4-10.86,3.1-27.48c-12.19-4.88-15.07-6-15.07-6Z"/><path class="cls-1" d="M56,119l4.9,5.93a5.81,5.81,0,1,0,9-7.4L65,111.59Z"/><path class="cls-6" d="M75.94,104.17s24.83,17.51,56.53,4.65-27.94-29-27.94-29L82.14,91.53Z"/><path class="cls-7" d="M97,24.65l-61,111a68.64,68.64,0,0,0,12.7,5.39L105,38.5"/><polyline class="cls-7" points="105.03 38.5 118.05 14.78 106 8.2 96.97 24.65"/><path class="cls-7" d="M34.24,141l-1,15.2,12.86-9.66A69.3,69.3,0,0,1,34.24,141Z"/><path class="cls-4" d="M161.51,96c-13.3,2.67-22.62,12.42-29.93,12.86-23.72.67-29.26-17.29-34.58-14s-29.71,19.06-35.91,8.2,29.27-38,29.27-38"/><path class="cls-1" d="M73,88.68,66.63,93a5.81,5.81,0,0,0,6.54,9.61l6.36-4.32Z"/><path class="cls-1" d="M32.7,94.54l2,7.43a5.81,5.81,0,1,0,11.23-3l-2-7.44Z"/><path class="cls-8" d="M43.56,73A22.46,22.46,0,0,0,55.1,75.79"/><path class="cls-8" d="M61.63,59.53a13.09,13.09,0,0,0,3.89,5.84"/><path class="cls-1" d="M120.15,12l.69-1.24a7.25,7.25,0,0,0-12.69-7L107.47,5Z"/><path class="cls-9" d="M90.36,65.09a28.78,28.78,0,0,1,14.78-4"/><line class="cls-9" x1="73.89" y1="65.62" x2="59.51" y2="92.03"/></g></g></svg>